D:\school\WTK\thesis\model\3dpredictsim\Results\debug_batch\Pog_s1_tmt_aCst_d05_k2000_ig24_pas_GRF.mot
nRows=10
nColumns=19

name D:\school\WTK\thesis\model\3dpredictsim\Results\debug_batch\Pog_s1_tmt_aCst_d05_k2000_ig24_pas_GRF.mot
datacolumns 19
datarows 10
range 0.5513552609 0.6505992079
endheader
time 	ground_force_vx	ground_force_vy	ground_force_vz	ground_force_px	ground_force_py	ground_force_pz	1_ground_force_vx	1_ground_force_vy	1_ground_force_vz	1_ground_force_px	1_ground_force_py	1_ground_force_pz	ground_torque_x	ground_torque_y	ground_torque_z	1_ground_torque_x	1_ground_torque_y	1_ground_torque_z
        0.5513552609	      101.8326509029	      530.9194630297	        3.1198148075	        0.3789867795	        0.0000000000	        0.0360793530	      -75.7795319015	       60.6475891228	      -26.2149978420	        0.8618966022	        0.0000000000	       -0.0387844414	        0.0000000000	        0.0000000000	        0.0000000000	        0.0000000000	        0.0000000000	        0.0000000000	
        0.5623823662	       86.4523959130	      454.2408531386	        7.0408914752	        0.3820757503	        0.0000000000	        0.0352745935	     -119.7354859112	      133.1989530655	      -66.9369291114	        0.8697040813	        0.0000000000	       -0.0364712696	        0.0000000000	        0.0000000000	        0.0000000000	        0.0000000000	        0.0000000000	        0.0000000000	
        0.5734094714	       69.9330815358	      368.8019610914	        8.9867624939	        0.3866412886	        0.0000000000	        0.0337838166	      -46.5032371113	      263.6452827065	      -33.9421724080	        0.8755148631	        0.0000000000	       -0.0340958527	        0.0000000000	        0.0000000000	        0.0000000000	        0.0000000000	        0.0000000000	        0.0000000000	
        0.5844365766	       48.4412691826	      277.6853927617	        5.5598960903	        0.3939032571	        0.0000000000	        0.0308382152	      -37.0337444285	      409.0716908415	       -5.3346182479	        0.8788582779	        0.0000000000	       -0.0338588157	        0.0000000000	        0.0000000000	        0.0000000000	        0.0000000000	        0.0000000000	        0.0000000000	
        0.5954636818	       20.7826300994	      180.7153900034	        7.3310053601	        0.4074949083	        0.0000000000	        0.0246745767	      -66.4273933594	      584.6266887957	        4.2052289996	        0.8864685222	        0.0000000000	       -0.0360930222	        0.0000000000	        0.0000000000	        0.0000000000	        0.0000000000	        0.0000000000	        0.0000000000	
        0.6064907870	        4.7789868379	      133.8461625277	       11.6916082742	        0.4161969409	        0.0000000000	        0.0202538336	      -94.0634396218	      731.2555804380	       10.2845656507	        0.8932854430	        0.0000000000	       -0.0381478683	        0.0000000000	        0.0000000000	        0.0000000000	        0.0000000000	        0.0000000000	        0.0000000000	
        0.6175178923	        1.8761820681	      102.9052907523	       12.4024869813	        0.4166428512	        0.0000000000	        0.0203639683	     -106.4260360386	      805.3400708025	       12.0469681898	        0.8979299031	        0.0000000000	       -0.0394321541	        0.0000000000	        0.0000000000	        0.0000000000	        0.0000000000	        0.0000000000	        0.0000000000	
        0.6285449975	       -2.5741547514	       66.5384025830	       11.2971179757	        0.4170629875	        0.0000000000	        0.0204101354	     -105.5811534756	      822.2549853462	       12.6419811614	        0.9013271032	        0.0000000000	       -0.0402102810	        0.0000000000	        0.0000000000	        0.0000000000	        0.0000000000	        0.0000000000	        0.0000000000	
        0.6395721027	       -8.2376021248	       27.0897898867	        5.6265048713	        0.4166873960	        0.0000000000	        0.0201198812	      -98.9557929594	      812.0263793167	       12.6728129231	        0.9043708698	        0.0000000000	       -0.0406666528	        0.0000000000	        0.0000000000	        0.0000000000	        0.0000000000	        0.0000000000	        0.0000000000	
        0.6505992079	        0.0982109552	       -0.0969618727	       -0.0022148206	        0.0000000000	        0.0000000000	        0.0000000000	      -89.6388861207	      794.8169957037	       13.2590233170	        0.9076222748	        0.0000000000	       -0.0408868730	        0.0000000000	        0.0000000000	        0.0000000000	        0.0000000000	        0.0000000000	        0.0000000000	
